<svg width="388" height="386" viewBox="0 0 388 386" fill="none" xmlns="http://www.w3.org/2000/svg">
<g filter="url(#filter0_d_28_358)">
<rect x="87" y="45" width="66.4297" height="66.4297" rx="15.1839" fill="#1D1F23"/>
<rect x="87.2372" y="45.2372" width="65.9552" height="65.9552" rx="14.9467" stroke="#888BA8" stroke-opacity="0.7" stroke-width="0.474498"/>
<path d="M120.202 82.2401C122.513 82.2401 124.385 80.3672 124.385 78.0568C124.385 75.7465 122.513 73.8735 120.202 73.8735C117.892 73.8735 116.019 75.7465 116.019 78.0568C116.019 80.3672 117.892 82.2401 120.202 82.2401Z" fill="#61DAFB"/>
<path d="M120.202 86.6273C132.599 86.6273 142.649 82.7901 142.649 78.0567C142.649 73.3233 132.599 69.4861 120.202 69.4861C107.805 69.4861 97.7553 73.3233 97.7553 78.0567C97.7553 82.7901 107.805 86.6273 120.202 86.6273Z" stroke="#61DAFB" stroke-width="2.37249"/>
<path d="M112.78 82.342C118.978 93.0782 127.326 99.863 131.426 97.4962C135.525 95.1295 133.823 84.5075 127.625 73.7714C121.426 63.0352 113.078 56.2504 108.979 58.6171C104.879 60.9838 106.581 71.6058 112.78 82.342Z" stroke="#61DAFB" stroke-width="2.37249"/>
<path d="M112.78 73.7713C106.581 84.5075 104.879 95.1295 108.979 97.4962C113.078 99.8629 121.426 93.0781 127.625 82.3419C133.823 71.6057 135.525 60.9837 131.426 58.617C127.326 56.2503 118.978 63.0351 112.78 73.7713Z" stroke="#61DAFB" stroke-width="2.37249"/>
<rect x="235" y="119" width="66.4297" height="66.4297" rx="15.1839" fill="#1D1F23"/>
<rect x="235.237" y="119.237" width="65.9552" height="65.9552" rx="14.9467" stroke="#888BA8" stroke-opacity="0.7" stroke-width="0.474498"/>
<path fill-rule="evenodd" clip-rule="evenodd" d="M254.187 133.077C251.48 133.077 249.476 135.447 249.566 138.016C249.652 140.485 249.54 143.683 248.735 146.291C247.928 148.906 246.562 150.563 244.332 150.776V153.177C246.562 153.39 247.928 155.047 248.735 157.662C249.54 160.27 249.652 163.467 249.566 165.936C249.476 168.506 251.48 170.876 254.188 170.876H281.93C284.637 170.876 286.64 168.506 286.55 165.936C286.464 163.467 286.576 160.27 287.381 157.662C288.189 155.047 289.551 153.39 291.782 153.177V150.776C289.551 150.563 288.189 148.906 287.381 146.291C286.576 143.684 286.464 140.485 286.55 138.016C286.64 135.447 284.637 133.077 281.93 133.077H254.187H254.187ZM276.501 156.345C276.501 159.883 273.862 162.029 269.481 162.029H262.025C261.812 162.029 261.607 161.945 261.456 161.794C261.305 161.643 261.221 161.438 261.221 161.225V142.728C261.221 142.514 261.305 142.31 261.456 142.159C261.607 142.008 261.812 141.924 262.025 141.924H269.439C273.091 141.924 275.488 143.902 275.488 146.939C275.488 149.071 273.876 150.98 271.822 151.314V151.426C274.618 151.732 276.501 153.669 276.501 156.345ZM268.668 144.473H264.417V150.478H267.998C270.766 150.478 272.292 149.364 272.292 147.371C272.292 145.504 270.98 144.473 268.668 144.473ZM264.417 152.861V159.479H268.825C271.707 159.479 273.234 158.323 273.234 156.149C273.234 153.976 271.664 152.861 268.639 152.861H264.417V152.861Z" fill="white"/>
<rect x="15" y="158" width="66.4297" height="66.4297" rx="15.1839" fill="#1D1F23"/>
<rect x="15.2372" y="158.237" width="65.9552" height="65.9552" rx="14.9467" stroke="#888BA8" stroke-opacity="0.7" stroke-width="0.474498"/>
<path d="M41.6733 177.53C35.4725 176.401 30.5697 177.583 28.6157 180.967C27.1576 183.493 27.5738 186.841 29.6259 190.421C29.6674 190.493 29.7228 190.557 29.7889 190.608C29.8551 190.659 29.9306 190.697 30.0112 190.718C30.0919 190.74 30.176 190.746 30.2589 190.735C30.3417 190.725 30.4217 190.698 30.4942 190.656C30.6405 190.572 30.7475 190.434 30.7917 190.271C30.8359 190.108 30.8136 189.934 30.7297 189.788C28.881 186.564 28.5207 183.674 29.7171 181.603C31.3401 178.792 35.7128 177.737 41.445 178.782C41.5487 178.802 41.6557 178.796 41.7566 178.765C41.8575 178.734 41.9491 178.678 42.023 178.603C42.0969 178.527 42.1508 178.434 42.1799 178.333C42.2091 178.231 42.2124 178.124 42.1898 178.021C42.1624 177.897 42.0985 177.784 42.0064 177.697C41.9142 177.609 41.798 177.551 41.6727 177.531L41.6733 177.53ZM32.8504 194.771C35.3575 197.526 38.6149 200.111 42.3299 202.256C51.3244 207.449 60.9 208.837 65.619 205.619C65.755 205.523 65.8476 205.377 65.8771 205.213C65.9066 205.049 65.8705 204.88 65.7767 204.742C65.6828 204.604 65.5387 204.509 65.3753 204.476C65.2119 204.444 65.0422 204.477 64.9028 204.568C60.6791 207.448 51.583 206.13 42.9658 201.154C39.3616 199.073 36.2076 196.571 33.7912 193.915C33.7072 193.82 33.5966 193.752 33.4736 193.72C33.3506 193.688 33.2208 193.694 33.1011 193.736C33.0015 193.772 32.9123 193.831 32.8416 193.91C32.7709 193.988 32.7208 194.083 32.6959 194.186C32.671 194.289 32.6721 194.396 32.6991 194.498C32.7261 194.6 32.7781 194.694 32.8504 194.771Z" fill="#2DD0ED"/>
<path d="M64.1142 193.998C68.1742 189.201 69.5921 184.377 67.6423 181C66.2075 178.515 63.174 177.203 59.1432 177.15C58.9746 177.148 58.812 177.213 58.6911 177.331C58.5703 177.448 58.5011 177.609 58.4987 177.778C58.4969 177.903 58.5325 178.027 58.601 178.132C58.6695 178.238 58.7678 178.321 58.8835 178.37C58.9602 178.403 59.0427 178.421 59.1262 178.422C62.7517 178.469 65.3653 179.599 66.541 181.636C68.1602 184.441 66.8963 188.743 63.1436 193.176C63.0877 193.24 63.0451 193.313 63.0181 193.394C62.9912 193.474 62.9805 193.558 62.9867 193.643C62.9929 193.727 63.0159 193.809 63.0543 193.885C63.0927 193.96 63.1457 194.027 63.2103 194.081C63.2749 194.136 63.3496 194.177 63.4302 194.202C63.5108 194.228 63.5957 194.237 63.6798 194.229C63.7639 194.221 63.8457 194.196 63.9202 194.157C63.9948 194.117 64.0607 194.063 64.1142 193.998ZM53.6799 177.742C50.0087 178.529 46.1015 180.067 42.3493 182.233C33.0634 187.594 27.0062 195.499 27.8478 201.231C27.8582 201.315 27.8854 201.396 27.9276 201.469C27.9698 201.543 28.0263 201.607 28.0937 201.658C28.1611 201.71 28.238 201.747 28.32 201.768C28.402 201.789 28.4874 201.794 28.5712 201.781C28.655 201.769 28.7355 201.74 28.8079 201.696C28.8804 201.652 28.9433 201.595 28.9931 201.526C29.0429 201.458 29.0785 201.38 29.0978 201.297C29.1171 201.215 29.1198 201.129 29.1056 201.046C28.359 195.957 34.1003 188.464 42.9846 183.335C46.6248 181.233 50.4085 179.744 53.9465 178.985C54.1063 178.945 54.2444 178.845 54.3315 178.705C54.4186 178.565 54.4479 178.396 54.4134 178.235C54.3788 178.074 54.283 177.932 54.1462 177.841C54.0094 177.749 53.8422 177.713 53.6799 177.742Z" fill="#2DD0ED"/>
<path d="M38.6367 205.205C40.7605 211.132 44.2327 214.782 48.1382 214.782C50.986 214.782 53.6209 212.841 55.6759 209.422C55.7219 209.351 55.7532 209.271 55.7677 209.187C55.7823 209.103 55.7799 209.017 55.7606 208.934C55.7365 208.83 55.6867 208.734 55.6157 208.654C55.5447 208.575 55.4548 208.514 55.3543 208.479C55.2538 208.443 55.1459 208.433 55.0406 208.45C54.9353 208.467 54.8359 208.51 54.7517 208.575C54.6844 208.628 54.6283 208.693 54.5867 208.767C52.7397 211.839 50.4712 213.51 48.1382 213.51C44.8948 213.51 41.7968 210.255 39.8344 204.776C39.8075 204.696 39.7648 204.621 39.7089 204.558C39.6531 204.494 39.5851 204.442 39.509 204.405C39.4328 204.369 39.3501 204.347 39.2656 204.342C39.1811 204.338 39.0965 204.35 39.0169 204.379C38.9373 204.408 38.8641 204.452 38.8018 204.509C38.7394 204.566 38.689 204.635 38.6537 204.712C38.6183 204.789 38.5986 204.872 38.5957 204.957C38.593 205.041 38.6071 205.126 38.6374 205.205H38.6367ZM58.0278 204.045C59.1267 200.534 59.7164 196.482 59.7164 192.26C59.7164 181.727 56.0301 172.646 50.7785 170.314C50.625 170.25 50.4524 170.248 50.2976 170.309C50.1428 170.37 50.0182 170.49 49.9507 170.642C49.8831 170.794 49.8779 170.967 49.9362 171.123C49.9945 171.279 50.1116 171.406 50.2624 171.476C54.9462 173.556 58.4453 182.174 58.4453 192.26C58.4453 196.356 57.8732 200.279 56.8144 203.665C56.787 203.746 56.776 203.831 56.782 203.915C56.788 204 56.8109 204.082 56.8493 204.158C56.9072 204.272 56.998 204.366 57.11 204.427C57.222 204.489 57.3499 204.515 57.4771 204.503C57.6043 204.491 57.7248 204.441 57.8231 204.359C57.9213 204.277 57.9926 204.168 58.0278 204.045ZM70.0028 203.422C70.0054 203.021 69.9285 202.623 69.7767 202.252C69.625 201.88 69.4012 201.543 69.1184 201.258C68.8355 200.973 68.4992 200.747 68.1287 200.593C67.7582 200.439 67.3609 200.36 66.9596 200.36C66.5583 200.36 66.161 200.439 65.7905 200.593C65.42 200.747 65.0837 200.973 64.8009 201.258C64.518 201.543 64.2943 201.88 64.1425 202.252C63.9908 202.623 63.914 203.021 63.9165 203.423C63.9217 204.226 64.2446 204.995 64.8147 205.562C65.3849 206.128 66.156 206.446 66.9597 206.446C67.7635 206.446 68.5346 206.128 69.1047 205.562C69.6748 204.995 69.9977 204.226 70.0028 203.422ZM68.731 203.422C68.7309 203.892 68.5443 204.343 68.2121 204.675C67.8799 205.007 67.4294 205.194 66.9596 205.194C66.6093 205.194 66.2668 205.09 65.9756 204.895C65.6843 204.701 65.4573 204.424 65.3232 204.1C65.1892 203.777 65.1541 203.421 65.2225 203.077C65.2908 202.733 65.4595 202.418 65.7072 202.17C65.955 201.922 66.2706 201.754 66.6141 201.685C66.9577 201.617 67.3139 201.652 67.6375 201.786C67.9612 201.92 68.2378 202.147 68.4324 202.438C68.6271 202.73 68.731 203.072 68.731 203.422ZM29.273 206.466C29.6726 206.466 30.0684 206.387 30.4376 206.234C30.8069 206.081 31.1424 205.857 31.425 205.574C31.7075 205.292 31.9317 204.956 32.0846 204.587C32.2375 204.218 32.3162 203.822 32.3162 203.422C32.3162 203.023 32.2375 202.627 32.0846 202.258C31.9316 201.889 31.7075 201.553 31.4249 201.27C31.1423 200.988 30.8068 200.764 30.4375 200.611C30.0683 200.458 29.6725 200.379 29.2729 200.379C28.8732 200.379 28.4775 200.458 28.1083 200.611C27.739 200.764 27.4036 200.988 27.121 201.271C26.8384 201.553 26.6143 201.889 26.4613 202.258C26.3084 202.627 26.2297 203.023 26.2298 203.422C26.2297 203.822 26.3084 204.218 26.4614 204.587C26.6143 204.956 26.8384 205.292 27.121 205.574C27.4036 205.857 27.7391 206.081 28.1084 206.234C28.4776 206.387 28.8733 206.466 29.273 206.466ZM29.273 205.194C28.8031 205.194 28.3524 205.007 28.0201 204.675C27.6879 204.343 27.5012 203.892 27.5012 203.422C27.5012 202.952 27.6879 202.501 28.0201 202.169C28.3524 201.837 28.8031 201.65 29.273 201.65C29.7429 201.65 30.1935 201.837 30.5258 202.169C30.8581 202.501 31.0448 202.952 31.0448 203.422C31.0448 203.892 30.8581 204.343 30.5258 204.675C30.1935 205.007 29.7429 205.194 29.273 205.194Z" fill="#2DD0ED"/>
<path d="M48.1383 173.418C48.7402 173.418 49.3286 173.24 49.829 172.905C50.3295 172.571 50.7195 172.096 50.9498 171.539C51.1412 171.077 51.2156 170.575 51.1665 170.077C51.1174 169.579 50.9463 169.1 50.6683 168.684C50.3902 168.268 50.0139 167.927 49.5726 167.691C49.1313 167.455 48.6387 167.332 48.1383 167.332C47.5363 167.332 46.9479 167.51 46.4474 167.844C45.9469 168.179 45.5568 168.654 45.3264 169.21C45.0961 169.766 45.0358 170.378 45.1533 170.969C45.2708 171.559 45.5607 172.101 45.9864 172.527C46.269 172.809 46.6044 173.033 46.9737 173.186C47.3429 173.339 47.7386 173.418 48.1383 173.418V173.418ZM48.1383 172.146C47.7879 172.146 47.4455 172.042 47.1542 171.848C46.8629 171.653 46.6358 171.376 46.5017 171.053C46.4126 170.838 46.3667 170.608 46.3667 170.375C46.3667 170.142 46.4126 169.912 46.5017 169.697C46.5907 169.482 46.7211 169.287 46.8856 169.122C47.0501 168.958 47.2454 168.827 47.4603 168.738C47.7023 168.638 47.9636 168.593 48.2252 168.606C48.4869 168.619 48.7424 168.689 48.9734 168.813C49.2045 168.936 49.4052 169.109 49.5613 169.32C49.7173 169.53 49.8248 169.773 49.8759 170.03C49.927 170.287 49.9205 170.552 49.8568 170.806C49.7932 171.06 49.6739 171.297 49.5078 171.499C49.3416 171.702 49.1325 171.865 48.8957 171.977C48.6589 172.089 48.4002 172.147 48.1383 172.147V172.146ZM48.6031 194.413C48.0322 194.536 47.4358 194.428 46.9449 194.111C46.5787 193.875 46.2908 193.536 46.1175 193.136C45.9442 192.737 45.8933 192.295 45.9713 191.866C46.0492 191.438 46.2526 191.042 46.5555 190.729C46.8585 190.416 47.2475 190.2 47.6733 190.108C48.2403 189.995 48.8291 190.109 49.3126 190.426C49.7961 190.743 50.1356 191.237 50.2577 191.802C50.3797 192.368 50.2746 192.958 49.965 193.446C49.6554 193.935 49.1663 194.282 48.6031 194.412V194.413Z" fill="#2DD0ED"/>
<rect x="161" y="12" width="66.4297" height="66.4297" rx="15.1839" fill="#1D1F23"/>
<rect x="161.237" y="12.2372" width="65.9552" height="65.9552" rx="14.9467" stroke="#888BA8" stroke-opacity="0.7" stroke-width="0.474498"/>
<path d="M199.469 38.4694L194.723 42.8878L190.318 33.9991L192.594 28.8883C193.169 27.8688 194.11 27.8554 194.685 28.8883L199.469 38.4694Z" fill="#FFA000"/>
<path d="M194.725 42.886L176.975 59.3957L190.32 33.9993L194.725 42.886Z" fill="#F57F17"/>
<path d="M204.672 31.7121C205.522 30.9023 206.397 31.1755 206.618 32.3257L211.233 59.1725L195.927 68.3613C195.391 68.6613 193.967 68.7787 193.967 68.7787C193.967 68.7787 192.673 68.621 192.176 68.3478L176.975 59.3957L204.672 31.7121Z" fill="#FFCA28"/>
<path d="M190.32 33.9992L176.975 59.3956L182.922 22.2753C183.145 21.125 183.798 21.0077 184.386 22.0271L190.32 33.9992Z" fill="#FFA000"/>
<rect x="235" y="193" width="66.4297" height="66.4297" rx="15.1839" fill="#1D1F23"/>
<rect x="235.237" y="193.237" width="65.9552" height="65.9552" rx="14.9467" stroke="#888BA8" stroke-opacity="0.7" stroke-width="0.474498"/>
<path d="M282.682 233.089C283.18 233.588 282.827 234.439 282.123 234.439H269.006C268.568 234.439 268.215 234.792 268.215 235.23V248.347C268.215 249.051 267.363 249.404 266.865 248.906L252.707 234.748C252.509 234.55 252.398 234.281 252.398 234.002V219.413C252.398 218.976 252.751 218.623 253.189 218.623H268.215L282.682 233.089Z" fill="white"/>
<path d="M268.215 218.622L253.748 204.156C253.25 203.657 253.603 202.806 254.307 202.806H283.241C283.678 202.806 284.031 203.159 284.031 203.597V217.832C284.031 218.269 283.678 218.622 283.241 218.622H268.215Z" fill="white"/>
<rect x="161" y="84" width="66.4297" height="66.4297" rx="15.1839" fill="#1D1F23"/>
<rect x="161.237" y="84.2372" width="65.9552" height="65.9552" rx="14.9467" stroke="#888BA8" stroke-opacity="0.7" stroke-width="0.474498"/>
<path d="M216.887 114.943L196.17 94.2266C194.977 93.0335 193.042 93.0335 191.848 94.2266L187.546 98.5286L193.004 103.986C194.272 103.557 195.726 103.845 196.737 104.856C197.753 105.873 198.038 107.34 197.599 108.612L202.859 113.872C204.131 113.433 205.599 113.717 206.615 114.735C208.036 116.155 208.036 118.456 206.615 119.876C205.195 121.297 202.894 121.297 201.472 119.876C200.404 118.807 200.14 117.238 200.681 115.922L195.776 111.017L195.775 123.924C196.131 124.1 196.456 124.332 196.737 124.612C198.157 126.032 198.157 128.333 196.737 129.755C195.316 131.175 193.014 131.175 191.595 129.755C190.175 128.333 190.175 126.032 191.595 124.612C191.936 124.272 192.34 124.002 192.786 123.819V110.791C192.34 110.609 191.935 110.339 191.595 109.998C190.519 108.923 190.261 107.344 190.812 106.023L185.432 100.642L171.227 114.847C170.033 116.041 170.033 117.976 171.227 119.169L191.944 139.886C193.137 141.079 195.072 141.079 196.266 139.886L216.886 119.266C218.08 118.072 218.08 116.136 216.887 114.943Z" fill="#DE4C36"/>
<rect x="87" y="267" width="66.4297" height="66.4297" rx="15.1839" fill="#1D1F23"/>
<rect x="87.2372" y="267.237" width="65.9552" height="65.9552" rx="14.9467" stroke="#888BA8" stroke-opacity="0.7" stroke-width="0.474498"/>
<path d="M113.771 313.028C113.771 313.028 111.958 314.082 115.061 314.439C118.821 314.868 120.743 314.806 124.887 314.022C124.887 314.022 125.976 314.705 127.497 315.297C118.209 319.278 106.475 315.066 113.771 313.028ZM112.636 307.833C112.636 307.833 110.602 309.338 113.708 309.659C117.725 310.074 120.897 310.107 126.385 309.051C126.385 309.051 127.144 309.82 128.338 310.241C117.107 313.525 104.599 310.5 112.636 307.833Z" fill="#5382A1"/>
<path d="M122.205 299.02C124.493 301.655 121.603 304.026 121.603 304.026C121.603 304.026 127.415 301.026 124.746 297.269C122.253 293.766 120.341 292.025 130.69 286.023C130.69 286.023 114.446 290.08 122.205 299.02" fill="#E76F00"/>
<path d="M134.49 316.87C134.49 316.87 135.832 317.976 133.012 318.831C127.65 320.455 110.696 320.946 105.987 318.896C104.294 318.159 107.469 317.137 108.467 316.922C109.509 316.697 110.104 316.739 110.104 316.739C108.221 315.412 97.9341 319.343 104.879 320.469C123.817 323.54 139.402 319.086 134.49 316.87ZM114.643 302.45C114.643 302.45 106.019 304.498 111.589 305.242C113.941 305.557 118.629 305.486 122.996 305.12C126.565 304.819 130.149 304.179 130.149 304.179C130.149 304.179 128.89 304.718 127.98 305.339C119.222 307.642 102.305 306.571 107.175 304.215C111.294 302.224 114.643 302.45 114.643 302.45H114.643ZM130.113 311.097C139.015 306.471 134.899 302.026 132.026 302.625C131.322 302.771 131.008 302.898 131.008 302.898C131.008 302.898 131.27 302.489 131.769 302.311C137.452 300.313 141.824 308.205 129.934 311.33C129.934 311.33 130.072 311.207 130.113 311.097Z" fill="#5382A1"/>
<path d="M124.746 276.332C124.746 276.332 129.676 281.264 120.07 288.848C112.366 294.931 118.313 298.4 120.066 302.363C115.57 298.306 112.27 294.735 114.484 291.411C117.733 286.531 126.735 284.166 124.746 276.332" fill="#E76F00"/>
<path d="M115.518 323.632C124.063 324.179 137.185 323.329 137.495 319.286C137.495 319.286 136.898 320.819 130.433 322.036C123.14 323.408 114.144 323.248 108.809 322.368C108.809 322.368 109.901 323.272 115.518 323.632" fill="#5382A1"/>
<rect x="161" y="158" width="66.4297" height="66.4297" rx="15.1839" fill="#1D1F23"/>
<rect x="161.237" y="158.237" width="65.9552" height="65.9552" rx="14.9467" stroke="#888BA8" stroke-opacity="0.7" stroke-width="0.474498"/>
<path d="M217.782 167.332H170.332V214.782H217.782V167.332Z" fill="#F7DF1E"/>
<path d="M202.206 204.402C203.162 205.963 204.405 207.11 206.604 207.11C208.452 207.11 209.632 206.186 209.632 204.911C209.632 203.382 208.42 202.84 206.386 201.951L205.271 201.472C202.054 200.102 199.916 198.384 199.916 194.754C199.916 191.41 202.464 188.864 206.446 188.864C209.281 188.864 211.319 189.851 212.788 192.434L209.316 194.664C208.551 193.293 207.727 192.753 206.446 192.753C205.14 192.753 204.313 193.581 204.313 194.664C204.313 196.001 205.141 196.543 207.054 197.371L208.169 197.849C211.957 199.473 214.096 201.13 214.096 204.853C214.096 208.868 210.943 211.067 206.708 211.067C202.567 211.067 199.891 209.094 198.582 206.507L202.206 204.402ZM186.455 204.789C187.155 206.031 187.793 207.082 189.324 207.082C190.789 207.082 191.714 206.509 191.714 204.28V189.119H196.172V204.34C196.172 208.957 193.465 211.059 189.514 211.059C185.944 211.059 183.877 209.211 182.825 206.986L186.455 204.789Z" fill="black"/>
<rect x="162" y="306" width="66.4297" height="66.4297" rx="15.1839" fill="#1D1F23"/>
<rect x="162.237" y="306.237" width="65.9552" height="65.9552" rx="14.9467" stroke="#888BA8" stroke-opacity="0.7" stroke-width="0.474498"/>
<path d="M218.067 326.001C218.084 326.064 218.093 326.129 218.093 326.194V336.317C218.093 336.447 218.058 336.574 217.993 336.687C217.928 336.799 217.834 336.892 217.722 336.957L209.225 341.849V351.545C209.225 351.808 209.085 352.052 208.856 352.185L191.121 362.395C191.08 362.418 191.036 362.432 190.992 362.448C190.975 362.454 190.959 362.464 190.942 362.468C190.818 362.501 190.688 362.501 190.564 362.468C190.543 362.463 190.525 362.452 190.505 362.444C190.465 362.43 190.422 362.417 190.384 362.395L172.652 352.185C172.539 352.12 172.446 352.027 172.38 351.914C172.315 351.802 172.281 351.674 172.281 351.545V321.176C172.281 321.109 172.29 321.045 172.307 320.982C172.312 320.961 172.325 320.941 172.333 320.92C172.346 320.881 172.359 320.842 172.38 320.806C172.393 320.782 172.414 320.762 172.43 320.74C172.452 320.711 172.471 320.68 172.496 320.654C172.517 320.633 172.545 320.617 172.569 320.599C172.595 320.577 172.619 320.553 172.65 320.535H172.651L181.517 315.43C181.629 315.366 181.757 315.332 181.886 315.332C182.016 315.332 182.143 315.366 182.255 315.43L191.122 320.535H191.124C191.153 320.554 191.178 320.577 191.205 320.598C191.229 320.616 191.255 320.633 191.277 320.653C191.303 320.68 191.321 320.711 191.343 320.74C191.359 320.762 191.38 320.782 191.393 320.806C191.414 320.842 191.426 320.881 191.441 320.92C191.448 320.941 191.461 320.961 191.467 320.983C191.484 321.046 191.492 321.11 191.493 321.176V340.144L198.881 335.89V326.193C198.881 326.128 198.89 326.063 198.907 326.001C198.913 325.979 198.925 325.959 198.933 325.938C198.947 325.899 198.96 325.86 198.981 325.824C198.994 325.8 199.015 325.78 199.03 325.758C199.053 325.729 199.071 325.698 199.097 325.672C199.118 325.651 199.145 325.636 199.169 325.617C199.196 325.595 199.22 325.571 199.25 325.553H199.251L208.118 320.449C208.23 320.384 208.358 320.35 208.487 320.35C208.617 320.35 208.744 320.384 208.856 320.449L217.723 325.553C217.754 325.572 217.778 325.595 217.806 325.616C217.829 325.635 217.856 325.651 217.877 325.671C217.903 325.698 217.921 325.729 217.943 325.758C217.96 325.78 217.98 325.8 217.993 325.824C218.014 325.86 218.026 325.899 218.041 325.938C218.049 325.959 218.061 325.979 218.067 326.001ZM216.615 335.89V327.472L213.512 329.258L209.225 331.726V340.144L216.616 335.89H216.615ZM207.748 351.117V342.694L203.532 345.102L191.492 351.974V360.476L207.748 351.117ZM173.759 322.453V351.117L190.014 360.476V351.974L181.522 347.169L181.519 347.167L181.515 347.165C181.487 347.148 181.463 347.124 181.436 347.104C181.413 347.086 181.386 347.071 181.366 347.05L181.364 347.048C181.34 347.025 181.323 346.996 181.303 346.97C181.285 346.945 181.263 346.924 181.248 346.898L181.247 346.895C181.23 346.868 181.22 346.835 181.208 346.803C181.196 346.776 181.18 346.75 181.173 346.72V346.719C181.164 346.684 181.162 346.647 181.158 346.611C181.155 346.584 181.147 346.556 181.147 346.528V326.708L176.862 324.239L173.759 322.454V322.453ZM181.887 316.923L174.5 321.176L181.885 325.428L189.272 321.175L181.885 316.923H181.887ZM185.729 343.461L190.015 340.994V322.453L186.912 324.24L182.625 326.708V345.249L185.729 343.461ZM208.487 321.941L201.101 326.194L208.487 330.446L215.873 326.193L208.487 321.941ZM207.748 331.726L203.462 329.258L200.359 327.472V335.89L204.645 338.357L207.748 340.144V331.726ZM190.752 350.696L201.586 344.51L207.002 341.42L199.621 337.17L191.123 342.063L183.377 346.522L190.752 350.696Z" fill="#FF2D20"/>
<rect x="235" y="45" width="66.4297" height="66.4297" rx="15.1839" fill="#1D1F23"/>
<rect x="235.237" y="45.2372" width="65.9552" height="65.9552" rx="14.9467" stroke="#888BA8" stroke-opacity="0.7" stroke-width="0.474498"/>
<path d="M268.126 54.4614L269.392 56.8397C269.677 57.2785 269.985 57.667 270.348 58.0288C271.413 59.0805 272.406 60.203 273.32 61.3886C275.465 64.2057 276.912 67.3342 277.946 70.7177C278.565 72.7846 278.902 74.9048 278.927 77.0488C279.031 83.4585 276.834 88.9622 272.403 93.5364C271.683 94.2617 270.904 94.9272 270.075 95.5261C269.637 95.5261 269.429 95.1896 269.248 94.8797C268.919 94.3051 268.699 93.674 268.602 93.0189C268.446 92.2435 268.344 91.468 268.394 90.6673V90.3056C268.358 90.2285 267.971 54.6438 268.126 54.4614Z" fill="#599636"/>
<path d="M268.126 54.3828C268.074 54.279 268.022 54.3576 267.97 54.408C267.995 54.9269 267.814 55.3895 267.531 55.8314C267.22 56.2703 266.808 56.6068 266.394 56.9686C264.096 58.9584 262.287 61.3618 260.838 64.05C258.911 67.6677 257.917 71.545 257.636 75.6269C257.507 77.0992 258.101 82.2945 258.565 83.7935C259.831 87.7731 262.106 91.1077 265.052 94.0019C265.776 94.6988 266.55 95.3452 267.35 95.9665C267.583 95.9665 267.608 95.7589 267.662 95.6047C267.764 95.2747 267.841 94.9378 267.894 94.5965L268.413 90.7207L268.126 54.3828Z" fill="#6CAC48"/>
<path d="M269.392 97.1006C269.444 96.5076 269.729 96.0153 270.038 95.5245C269.727 95.3956 269.496 95.1391 269.315 94.8529C269.159 94.582 269.03 94.2964 268.929 94.0003C268.568 92.915 268.49 91.7763 268.387 90.6673V89.9956C268.258 90.0994 268.231 90.9771 268.231 91.1076C268.156 92.2798 268 93.4454 267.765 94.5964C267.688 95.062 267.636 95.526 267.35 95.9397C267.35 95.9916 267.35 96.0435 267.375 96.1206C267.841 97.4906 267.969 98.8858 268.047 100.308V100.827C268.047 101.446 268.022 101.316 268.536 101.524C268.744 101.601 268.975 101.627 269.183 101.781C269.339 101.781 269.364 101.653 269.364 101.549L269.287 100.696V98.3179C269.261 97.9028 269.339 97.4906 269.39 97.1021L269.392 97.1006Z" fill="#C2BFBF"/>
<rect x="309" y="232" width="66.4297" height="66.4297" rx="15.1839" fill="#1D1F23"/>
<rect x="309.237" y="232.237" width="65.9552" height="65.9552" rx="14.9467" stroke="#888BA8" stroke-opacity="0.7" stroke-width="0.474498"/>
<path d="M362.038 277.9C359.456 277.834 357.455 278.096 355.777 278.817C355.293 279.013 354.519 279.013 354.454 279.636C354.712 279.898 354.744 280.324 354.97 280.684C355.358 281.339 356.035 282.224 356.649 282.683C357.326 283.207 358.004 283.731 358.714 284.189C359.973 284.976 361.393 285.434 362.619 286.22C363.329 286.679 364.039 287.269 364.749 287.76C365.104 288.022 365.33 288.448 365.782 288.612V288.514C365.555 288.219 365.491 287.793 365.265 287.465C364.943 287.138 364.62 286.843 364.297 286.515C363.361 285.238 362.199 284.124 360.941 283.207C359.908 282.486 357.649 281.503 357.229 280.291C357.229 280.291 357.197 280.258 357.165 280.226C357.875 280.16 358.714 279.898 359.392 279.701C360.489 279.406 361.489 279.472 362.619 279.177C363.135 279.046 363.652 278.882 364.168 278.719V278.424C363.587 277.834 363.168 277.048 362.554 276.491C360.909 275.049 359.101 273.641 357.229 272.462C356.229 271.807 354.938 271.381 353.873 270.824C353.486 270.627 352.84 270.529 352.615 270.201C352.033 269.481 351.711 268.531 351.291 267.679C350.356 265.877 349.452 263.879 348.645 261.979C348.064 260.702 347.709 259.424 346.999 258.245C343.675 252.676 340.061 249.302 334.51 245.993C333.316 245.305 331.896 245.01 330.379 244.65C329.573 244.617 328.766 244.552 327.959 244.519C327.443 244.289 326.926 243.667 326.474 243.372C324.635 242.193 319.891 239.638 318.535 243.012C317.664 245.141 319.826 247.238 320.568 248.319C321.117 249.072 321.827 249.924 322.214 250.776C322.44 251.332 322.505 251.922 322.731 252.512C323.247 253.953 323.731 255.558 324.409 256.902C324.764 257.59 325.151 258.31 325.603 258.933C325.861 259.293 326.313 259.457 326.41 260.046C325.958 260.702 325.926 261.684 325.667 262.503C324.506 266.205 324.958 270.791 326.603 273.51C327.12 274.329 328.346 276.131 329.992 275.443C331.444 274.853 331.122 272.986 331.541 271.348C331.638 270.955 331.573 270.693 331.767 270.431V270.496C332.219 271.413 332.67 272.298 333.09 273.215C334.091 274.82 335.833 276.491 337.285 277.605C338.06 278.194 338.673 279.21 339.641 279.57V279.472H339.577C339.383 279.177 339.092 279.046 338.834 278.817C338.254 278.227 337.608 277.507 337.156 276.851C335.801 275.017 334.607 272.986 333.542 270.889C333.026 269.874 332.574 268.76 332.154 267.745C331.96 267.351 331.96 266.762 331.638 266.565C331.154 267.286 330.444 267.908 330.089 268.793C329.476 270.201 329.411 271.938 329.185 273.739C329.056 273.772 329.12 273.739 329.056 273.805C328.023 273.543 327.668 272.462 327.281 271.544C326.313 269.219 326.151 265.484 326.991 262.798C327.217 262.11 328.185 259.948 327.798 259.293C327.604 258.67 326.958 258.31 326.603 257.819C326.184 257.196 325.732 256.41 325.442 255.722C324.667 253.888 324.28 251.857 323.441 250.022C323.053 249.17 322.376 248.286 321.827 247.5C321.214 246.616 320.536 245.993 320.052 244.945C319.891 244.584 319.665 243.995 319.923 243.602C319.988 243.339 320.117 243.241 320.375 243.176C320.794 242.815 321.989 243.274 322.408 243.471C323.602 243.962 324.602 244.421 325.603 245.108C326.055 245.436 326.539 246.059 327.12 246.222H327.797C328.83 246.452 329.992 246.288 330.96 246.583C332.671 247.139 334.219 247.958 335.607 248.843C339.835 251.562 343.32 255.427 345.676 260.046C346.063 260.799 346.225 261.488 346.58 262.274C347.258 263.879 348.097 265.517 348.774 267.089C349.452 268.629 350.097 270.201 351.065 271.479C351.55 272.167 353.486 272.527 354.357 272.888C355.003 273.182 356.003 273.445 356.584 273.805C357.681 274.492 358.778 275.279 359.811 276.032C360.328 276.425 361.941 277.245 362.038 277.9Z" fill="#00546B"/>
<path d="M329.12 249.432C328.572 249.432 328.185 249.498 327.797 249.596V249.662H327.862C328.12 250.186 328.572 250.546 328.894 251.005C329.153 251.529 329.378 252.053 329.637 252.578C329.669 252.545 329.701 252.512 329.701 252.512C330.153 252.184 330.379 251.66 330.379 250.874C330.185 250.645 330.153 250.415 329.992 250.186C329.798 249.858 329.378 249.695 329.12 249.432Z" fill="#00546B"/>
<rect x="309" y="158" width="66.4297" height="66.4297" rx="15.1839" fill="#1D1F23"/>
<rect x="309.237" y="158.237" width="65.9552" height="65.9552" rx="14.9467" stroke="#888BA8" stroke-opacity="0.7" stroke-width="0.474498"/>
<path d="M340.291 167.838C341.467 167.165 343 167.162 344.175 167.838C350.089 171.18 356.005 174.516 361.918 177.86C363.03 178.486 363.774 179.724 363.763 181.006V201.11C363.771 202.445 362.954 203.712 361.78 204.324C355.886 207.648 349.994 210.975 344.101 214.298C342.9 214.985 341.337 214.932 340.173 214.189C338.406 213.165 336.636 212.145 334.869 211.122C334.507 210.907 334.1 210.735 333.845 210.385C334.071 210.081 334.474 210.043 334.801 209.911C335.539 209.676 336.217 209.3 336.894 208.934C337.066 208.817 337.275 208.862 337.439 208.967C338.95 209.833 340.448 210.725 341.964 211.583C342.288 211.77 342.615 211.522 342.892 211.368C348.676 208.099 354.467 204.842 360.251 201.572C360.465 201.468 360.583 201.241 360.566 201.006C360.57 194.374 360.567 187.741 360.568 181.109C360.593 180.842 360.438 180.597 360.198 180.488C354.324 177.18 348.453 173.867 342.579 170.558C342.478 170.488 342.357 170.451 342.234 170.451C342.11 170.45 341.99 170.488 341.888 170.557C336.015 173.867 330.145 177.183 324.272 180.491C324.032 180.6 323.871 180.841 323.899 181.109C323.9 187.741 323.899 194.374 323.899 201.007C323.889 201.122 323.914 201.237 323.971 201.337C324.028 201.436 324.115 201.516 324.218 201.565C325.786 202.454 327.355 203.337 328.923 204.222C329.807 204.698 330.892 204.981 331.865 204.616C332.724 204.308 333.326 203.432 333.31 202.519C333.318 195.926 333.306 189.332 333.316 182.739C333.294 182.446 333.572 182.205 333.857 182.232C334.61 182.227 335.364 182.222 336.117 182.234C336.431 182.227 336.647 182.542 336.608 182.837C336.605 189.472 336.617 196.108 336.603 202.743C336.605 204.511 335.879 206.435 334.243 207.301C332.228 208.345 329.737 208.123 327.747 207.122C326.023 206.262 324.379 205.247 322.686 204.325C321.509 203.716 320.696 202.444 320.704 201.111V181.006C320.692 179.698 321.466 178.437 322.612 177.82C328.506 174.494 334.398 171.166 340.291 167.838Z" fill="#8CC84B"/>
<path d="M345.432 181.765C348.003 181.599 350.754 181.667 353.067 182.933C354.858 183.903 355.851 185.94 355.883 187.929C355.833 188.198 355.552 188.346 355.296 188.327C354.55 188.326 353.804 188.338 353.058 188.322C352.742 188.335 352.558 188.043 352.519 187.763C352.304 186.811 351.785 185.868 350.889 185.409C349.514 184.721 347.919 184.755 346.419 184.77C345.324 184.828 344.147 184.923 343.219 185.566C342.507 186.054 342.291 187.039 342.545 187.832C342.784 188.401 343.442 188.585 343.979 188.754C347.077 189.564 350.36 189.484 353.398 190.55C354.656 190.984 355.887 191.829 356.317 193.146C356.881 194.912 356.634 197.022 355.378 198.439C354.359 199.605 352.876 200.24 351.396 200.585C349.428 201.024 347.385 201.035 345.386 200.84C343.507 200.626 341.551 200.132 340.1 198.851C338.859 197.774 338.253 196.095 338.313 194.475C338.328 194.202 338.6 194.011 338.862 194.033C339.613 194.027 340.364 194.025 341.115 194.034C341.415 194.013 341.638 194.272 341.653 194.555C341.792 195.462 342.132 196.414 342.923 196.951C344.45 197.936 346.365 197.869 348.113 197.896C349.561 197.832 351.186 197.813 352.368 196.856C352.991 196.31 353.176 195.396 353.007 194.611C352.825 193.948 352.131 193.638 351.535 193.436C348.477 192.469 345.158 192.82 342.129 191.726C340.9 191.292 339.711 190.47 339.239 189.207C338.58 187.419 338.882 185.208 340.269 183.839C341.622 182.477 343.575 181.952 345.432 181.765V181.765Z" fill="#8CC84B"/>
<rect x="235" y="267" width="66.4297" height="66.4297" rx="15.1839" fill="#1D1F23"/>
<rect x="235.237" y="267.237" width="65.9552" height="65.9552" rx="14.9467" stroke="#888BA8" stroke-opacity="0.7" stroke-width="0.474498"/>
<path fill-rule="evenodd" clip-rule="evenodd" d="M268.057 312.241C281.16 312.241 291.782 306.857 291.782 300.217C291.782 293.577 281.16 288.194 268.057 288.194C254.954 288.194 244.332 293.577 244.332 300.217C244.332 306.857 254.954 312.241 268.057 312.241Z" fill="#6E81B6"/>
<path fill-rule="evenodd" clip-rule="evenodd" d="M272.865 304.103L274.042 298.047C274.307 296.68 274.086 295.66 273.386 295.016C272.706 294.392 271.554 294.089 269.862 294.089H267.824L268.407 291.088C268.418 291.032 268.416 290.975 268.402 290.92C268.388 290.864 268.362 290.813 268.326 290.769C268.29 290.725 268.244 290.69 268.193 290.666C268.141 290.641 268.085 290.629 268.028 290.629H265.215C265.031 290.629 264.872 290.76 264.837 290.941L263.587 297.371C263.473 296.648 263.193 296.026 262.745 295.512C261.92 294.568 260.615 294.089 258.866 294.089H253.414C253.229 294.089 253.07 294.22 253.035 294.401L250.506 307.417C250.483 307.53 250.513 307.646 250.586 307.735C250.66 307.825 250.769 307.876 250.884 307.876H253.719C253.904 307.876 254.063 307.745 254.098 307.563L254.71 304.415H256.82C257.928 304.415 258.858 304.295 259.585 304.059C260.327 303.817 261.011 303.408 261.613 302.844C262.1 302.396 262.503 301.896 262.812 301.355L262.307 303.956C262.285 304.069 262.314 304.186 262.388 304.274C262.461 304.364 262.57 304.415 262.686 304.415H265.498C265.683 304.415 265.842 304.284 265.877 304.103L267.265 296.959H269.196C270.018 296.959 270.259 297.122 270.325 297.193C270.384 297.257 270.507 297.483 270.369 298.197L269.25 303.955C269.239 304.011 269.241 304.069 269.255 304.124C269.269 304.179 269.295 304.23 269.331 304.274C269.368 304.318 269.413 304.353 269.464 304.378C269.516 304.402 269.572 304.415 269.629 304.415H272.486C272.576 304.415 272.663 304.384 272.732 304.327C272.801 304.27 272.848 304.191 272.865 304.103ZM259.824 299.099C259.647 300.007 259.314 300.654 258.834 301.024C258.346 301.4 257.566 301.59 256.515 301.59H255.259L256.167 296.915H257.792C258.985 296.915 259.466 297.17 259.659 297.383C259.927 297.68 259.984 298.274 259.824 299.099ZM284.714 295.512C283.889 294.568 282.584 294.089 280.835 294.089H275.383C275.197 294.089 275.039 294.22 275.004 294.401L272.475 307.417C272.452 307.53 272.482 307.646 272.555 307.735C272.629 307.824 272.738 307.876 272.853 307.876H275.688C275.873 307.876 276.031 307.745 276.067 307.563L276.679 304.415H278.789C279.897 304.415 280.827 304.295 281.553 304.059C282.296 303.817 282.98 303.408 283.582 302.844C284.085 302.382 284.498 301.863 284.812 301.303C285.125 300.743 285.35 300.118 285.481 299.445C285.803 297.787 285.545 296.464 284.714 295.512ZM281.953 299.099C281.776 300.007 281.444 300.654 280.964 301.024C280.476 301.4 279.696 301.59 278.645 301.59H277.388L278.297 296.915H279.922C281.115 296.915 281.596 297.17 281.789 297.383C282.056 297.68 282.113 298.274 281.953 299.099Z" fill="white"/>
<path fill-rule="evenodd" clip-rule="evenodd" d="M257.711 296.529C258.788 296.529 259.506 296.728 259.865 297.125C260.224 297.523 260.309 298.206 260.122 299.173C259.925 300.18 259.548 300.899 258.988 301.33C258.429 301.761 257.577 301.976 256.435 301.976H254.71L255.768 296.529H257.711ZM250.803 307.49H253.638L254.311 304.03H256.739C257.811 304.03 258.693 303.917 259.385 303.692C260.077 303.467 260.706 303.09 261.272 302.56C261.747 302.123 262.131 301.641 262.426 301.115C262.72 300.588 262.928 300.007 263.052 299.372C263.352 297.829 263.126 296.627 262.374 295.766C261.622 294.905 260.425 294.475 258.785 294.475H253.333L250.803 307.49ZM265.134 291.015H267.947L267.275 294.475H269.781C271.357 294.475 272.445 294.75 273.044 295.3C273.642 295.85 273.822 296.741 273.582 297.973L272.405 304.03H269.548L270.667 298.271C270.794 297.616 270.747 297.169 270.526 296.931C270.305 296.693 269.834 296.573 269.115 296.573H266.867L265.418 304.03H262.605L265.134 291.015ZM279.841 296.529C280.918 296.529 281.636 296.728 281.995 297.125C282.354 297.523 282.439 298.206 282.251 299.173C282.056 300.18 281.678 300.899 281.118 301.33C280.559 301.761 279.707 301.976 278.565 301.976H276.84L277.899 296.529H279.841ZM272.933 307.49H275.768L276.44 304.03H278.869C279.941 304.03 280.822 303.917 281.514 303.692C282.206 303.467 282.835 303.09 283.401 302.56C283.876 302.123 284.261 301.641 284.555 301.115C284.849 300.588 285.058 300.007 285.182 299.372C285.482 297.829 285.255 296.627 284.504 295.766C283.751 294.905 282.555 294.475 280.915 294.475H275.463L272.933 307.49Z" fill="black"/>
<rect x="309" y="84" width="66.4297" height="66.4297" rx="15.1839" fill="#1D1F23"/>
<rect x="309.237" y="84.2372" width="65.9552" height="65.9552" rx="14.9467" stroke="#888BA8" stroke-opacity="0.7" stroke-width="0.474498"/>
<path d="M365.056 121.755C364.78 120.917 364.058 120.334 363.123 120.194C362.683 120.128 362.178 120.156 361.581 120.279C360.54 120.495 359.768 120.577 359.204 120.593C361.331 116.991 363.061 112.884 364.057 109.018C365.667 102.767 364.807 99.9187 363.801 98.6305C361.14 95.2209 357.258 93.3892 352.574 93.3331C350.075 93.3025 347.882 93.7972 346.738 94.1529C345.672 93.9644 344.527 93.8592 343.325 93.8397C341.072 93.8037 339.081 94.2962 337.38 95.3085C336.438 94.9891 334.927 94.5389 333.182 94.2517C329.076 93.5759 325.768 94.1025 323.348 95.8168C320.417 97.8925 319.059 101.499 319.31 106.536C319.39 108.135 320.282 113.001 321.687 117.615C322.494 120.268 323.355 122.47 324.245 124.163C325.508 126.562 326.86 127.975 328.376 128.483C329.227 128.767 330.772 128.966 332.396 127.609C332.602 127.859 332.877 128.107 333.242 128.338C333.705 128.631 334.271 128.87 334.837 129.012C336.875 129.523 338.784 129.395 340.413 128.679C340.423 128.97 340.431 129.247 340.437 129.487C340.448 129.875 340.459 130.257 340.473 130.613C340.569 133.023 340.733 134.897 341.217 136.208C341.244 136.281 341.28 136.39 341.317 136.507C341.559 137.249 341.963 138.492 342.992 139.465C344.057 140.472 345.345 140.782 346.524 140.782C347.116 140.782 347.68 140.704 348.175 140.597C349.94 140.218 351.945 139.64 353.395 137.57C354.765 135.613 355.432 132.665 355.552 128.021C355.568 127.889 355.582 127.764 355.596 127.644L355.625 127.399L355.948 127.427L356.031 127.433C357.829 127.515 360.027 127.133 361.376 126.504C362.443 126.008 365.861 124.198 365.056 121.755Z" fill="black"/>
<path d="M361.983 122.23C356.638 123.336 356.271 121.521 356.271 121.521C361.914 113.125 364.273 102.466 362.237 99.8578C356.683 92.7421 347.069 96.1074 346.909 96.1947L346.857 96.204C345.801 95.9842 344.62 95.8533 343.291 95.8315C340.873 95.7919 339.039 96.4673 337.646 97.5259C337.646 97.5259 320.496 90.441 321.294 106.436C321.464 109.839 326.158 132.184 331.757 125.435C333.803 122.967 335.78 120.88 335.78 120.88C336.762 121.534 337.938 121.868 339.171 121.748L339.266 121.667C339.237 121.973 339.25 122.273 339.305 122.628C337.862 124.244 338.286 124.527 335.403 125.122C332.485 125.725 334.199 126.799 335.318 127.08C336.675 127.42 339.813 127.902 341.934 124.925L341.85 125.264C342.415 125.718 342.811 128.217 342.745 130.482C342.678 132.747 342.634 134.302 343.079 135.516C343.525 136.731 343.968 139.464 347.759 138.65C350.926 137.969 352.568 136.205 352.796 133.263C352.958 131.171 353.325 131.481 353.348 129.611L353.642 128.725C353.981 125.89 353.696 124.975 355.647 125.401L356.121 125.443C357.557 125.508 359.437 125.211 360.54 124.697C362.916 123.591 364.325 121.745 361.982 122.23H361.983Z" fill="#336791"/>
<path d="M338.65 107.958C338.169 107.891 337.733 107.953 337.512 108.121C337.388 108.215 337.349 108.324 337.339 108.399C337.311 108.598 337.45 108.819 337.536 108.932C337.778 109.254 338.131 109.475 338.481 109.523C338.532 109.53 338.582 109.534 338.632 109.534C339.215 109.534 339.746 109.078 339.792 108.742C339.851 108.321 339.241 108.041 338.65 107.958V107.958ZM354.606 107.971C354.56 107.641 353.975 107.547 353.419 107.625C352.864 107.702 352.326 107.954 352.371 108.284C352.407 108.541 352.87 108.98 353.418 108.98C353.464 108.98 353.511 108.977 353.558 108.971C353.924 108.92 354.193 108.687 354.32 108.553C354.514 108.348 354.627 108.12 354.606 107.971Z" fill="white"/>
<path d="M363.761 122.105C363.558 121.487 362.902 121.288 361.812 121.514C358.576 122.183 357.417 121.719 357.037 121.438C359.552 117.596 361.621 112.952 362.737 108.619C363.266 106.566 363.558 104.66 363.582 103.106C363.608 101.401 363.319 100.147 362.721 99.3818C360.313 96.2957 356.778 94.6402 352.499 94.5948C349.557 94.5616 347.071 95.3166 346.589 95.5289C345.575 95.2758 344.469 95.1205 343.264 95.1007C341.056 95.0648 339.147 95.595 337.567 96.6757C336.88 96.4195 335.106 95.8087 332.936 95.4582C329.185 94.8527 326.204 95.3115 324.077 96.8226C321.539 98.6258 320.367 101.849 320.594 106.403C320.671 107.935 321.541 112.648 322.915 117.161C324.723 123.102 326.689 126.465 328.757 127.156C328.999 127.237 329.279 127.294 329.586 127.294C330.341 127.294 331.266 126.953 332.228 125.793C333.402 124.381 334.616 123.003 335.869 121.661C336.682 122.099 337.576 122.343 338.489 122.368C338.491 122.392 338.493 122.416 338.495 122.439C338.338 122.627 338.184 122.818 338.034 123.012C337.401 123.817 337.269 123.985 335.231 124.406C334.652 124.526 333.113 124.844 333.09 125.926C333.065 127.108 334.91 127.604 335.12 127.657C335.852 127.841 336.557 127.932 337.23 127.932C338.866 127.932 340.306 127.392 341.456 126.349C341.421 130.564 341.596 134.716 342.101 135.982C342.514 137.018 343.524 139.549 346.713 139.549C347.181 139.549 347.696 139.494 348.262 139.372C351.591 138.657 353.036 137.182 353.596 133.929C353.895 132.191 354.408 128.041 354.65 125.814C355.159 125.974 355.816 126.047 356.525 126.047C358.004 126.047 359.711 125.732 360.782 125.233C361.985 124.673 364.155 123.299 363.761 122.105ZM355.835 107.061C355.824 107.718 355.734 108.314 355.638 108.937C355.535 109.607 355.429 110.3 355.402 111.14C355.375 111.959 355.477 112.809 355.576 113.632C355.775 115.293 355.979 117.004 355.188 118.692C355.057 118.458 354.94 118.217 354.838 117.969C354.74 117.73 354.526 117.347 354.23 116.815C353.08 114.747 350.387 109.904 351.766 107.928C352.177 107.34 353.219 106.735 355.835 107.061ZM352.664 95.9257C356.498 96.0106 359.531 97.4488 361.678 100.2C363.325 102.311 361.512 111.914 356.261 120.198C356.209 120.131 356.156 120.064 356.102 119.997L356.036 119.914C357.392 117.667 357.127 115.444 356.891 113.473C356.794 112.665 356.702 111.901 356.726 111.183C356.75 110.423 356.85 109.77 356.947 109.139C357.066 108.362 357.188 107.558 357.154 106.61C357.179 106.51 357.189 106.393 357.176 106.253C357.091 105.344 356.056 102.623 353.946 100.16C352.792 98.8132 351.108 97.3058 348.81 96.289C349.799 96.0836 351.151 95.892 352.664 95.9257ZM331.21 124.944C330.149 126.222 329.417 125.977 329.176 125.897C327.608 125.372 325.787 122.047 324.182 116.773C322.793 112.211 321.981 107.623 321.917 106.336C321.714 102.267 322.698 99.4317 324.841 97.9078C328.328 95.4281 334.061 96.9124 336.365 97.6651C336.332 97.6979 336.298 97.7285 336.265 97.7619C332.484 101.59 332.574 108.131 332.583 108.531C332.583 108.685 332.596 108.904 332.614 109.204C332.679 110.305 332.8 112.352 332.476 114.671C332.176 116.826 332.838 118.935 334.293 120.457C334.443 120.613 334.6 120.762 334.764 120.902C334.116 121.598 332.708 123.136 331.21 124.944ZM335.25 119.538C334.077 118.311 333.544 116.604 333.788 114.855C334.129 112.405 334.003 110.272 333.936 109.126C333.926 108.965 333.918 108.825 333.913 108.714C334.465 108.223 337.024 106.848 338.85 107.267C339.682 107.458 340.19 108.027 340.401 109.005C341.493 114.07 340.545 116.181 339.784 117.877C339.627 118.227 339.479 118.557 339.353 118.899L339.254 119.163C339.006 119.831 338.775 120.452 338.632 121.041C337.385 121.038 336.172 120.504 335.25 119.538V119.538ZM335.441 126.369C335.077 126.277 334.749 126.119 334.557 125.988C334.718 125.912 335.003 125.809 335.499 125.706C337.896 125.212 338.266 124.863 339.074 123.833C339.259 123.597 339.469 123.33 339.76 123.004L339.761 123.004C340.194 122.517 340.392 122.6 340.752 122.749C341.043 122.87 341.327 123.236 341.442 123.639C341.496 123.829 341.557 124.191 341.357 124.472C339.669 126.843 337.208 126.812 335.441 126.369ZM347.985 138.074C345.053 138.704 344.015 137.204 343.33 135.488C342.889 134.381 342.672 129.388 342.826 123.874C342.828 123.801 342.817 123.73 342.797 123.663C342.779 123.532 342.752 123.402 342.715 123.274C342.486 122.471 341.928 121.8 341.259 121.522C340.993 121.412 340.505 121.209 339.918 121.359C340.043 120.843 340.26 120.259 340.495 119.627L340.594 119.361C340.705 119.061 340.845 118.751 340.992 118.422C341.789 116.647 342.88 114.216 341.695 108.725C341.252 106.668 339.771 105.663 337.525 105.897C336.179 106.036 334.948 106.581 334.333 106.893C334.201 106.96 334.081 107.025 333.968 107.088C334.139 105.016 334.787 101.143 337.21 98.6921C338.735 97.1495 340.767 96.3876 343.242 96.4287C348.12 96.5087 351.248 99.0187 353.013 101.11C354.534 102.913 355.358 104.728 355.686 105.708C353.214 105.456 351.533 105.945 350.681 107.167C348.827 109.824 351.695 114.983 353.074 117.462C353.327 117.916 353.545 118.309 353.614 118.476C354.062 119.567 354.644 120.295 355.068 120.827C355.198 120.99 355.324 121.148 355.42 121.286C354.672 121.502 353.327 122.003 353.449 124.502C353.35 125.757 352.648 131.629 352.29 133.704C351.819 136.445 350.813 137.466 347.985 138.074V138.074ZM360.224 124.029C359.459 124.385 358.178 124.652 356.961 124.71C355.616 124.773 354.932 124.559 354.771 124.427C354.695 122.869 355.274 122.706 355.885 122.534C355.982 122.507 356.075 122.481 356.166 122.449C356.222 122.495 356.284 122.54 356.352 122.585C357.432 123.3 359.359 123.377 362.08 122.814L362.11 122.808C361.743 123.152 361.115 123.614 360.224 124.029Z" fill="white"/>
<rect x="87" y="119" width="66.4297" height="66.4297" rx="15.1839" fill="#1D1F23"/>
<rect x="87.2372" y="119.237" width="65.9552" height="65.9552" rx="14.9467" stroke="#888BA8" stroke-opacity="0.7" stroke-width="0.474498"/>
<path d="M104.734 128.806H135.379C140.025 128.806 143.782 132.563 143.782 137.209V166.667C143.782 171.313 140.025 175.07 135.379 175.07H104.734C100.088 175.07 96.3318 171.313 96.3318 166.667V137.209C96.3318 132.563 100.088 128.806 104.734 128.806Z" fill="#001E36"/>
<path d="M107.008 161.25V140.906C107.008 140.768 107.067 140.689 107.206 140.689C107.542 140.689 107.858 140.689 108.313 140.669C108.787 140.649 109.282 140.649 109.815 140.629C110.349 140.61 110.923 140.61 111.535 140.59C112.148 140.57 112.741 140.57 113.335 140.57C114.956 140.57 116.3 140.768 117.407 141.183C118.396 141.519 119.305 142.073 120.057 142.804C120.689 143.437 121.184 144.208 121.5 145.058C121.796 145.888 121.955 146.739 121.955 147.628C121.955 149.329 121.559 150.732 120.768 151.839C119.978 152.947 118.87 153.777 117.585 154.251C116.241 154.746 114.758 154.924 113.137 154.924C112.662 154.924 112.346 154.924 112.148 154.904C111.951 154.884 111.674 154.884 111.298 154.884V161.23C111.318 161.369 111.219 161.488 111.081 161.507C111.061 161.507 111.041 161.507 111.002 161.507H107.245C107.087 161.507 107.008 161.428 107.008 161.25ZM111.318 144.504V151.147C111.595 151.167 111.852 151.187 112.089 151.187H113.137C113.908 151.187 114.679 151.068 115.411 150.831C116.043 150.653 116.597 150.277 117.032 149.783C117.447 149.289 117.645 148.617 117.645 147.747C117.664 147.134 117.506 146.521 117.19 145.987C116.854 145.473 116.379 145.078 115.806 144.86C115.074 144.564 114.284 144.445 113.473 144.465C112.959 144.465 112.504 144.465 112.129 144.485C111.733 144.465 111.456 144.485 111.318 144.504Z" fill="#31A8FF"/>
<path d="M134.292 149.941C133.698 149.625 133.066 149.408 132.394 149.269C131.662 149.111 130.931 149.012 130.179 149.012C129.784 148.992 129.369 149.052 128.993 149.151C128.736 149.21 128.519 149.348 128.38 149.546C128.281 149.704 128.222 149.902 128.222 150.08C128.222 150.258 128.301 150.436 128.42 150.594C128.598 150.811 128.835 150.989 129.092 151.128C129.547 151.365 130.021 151.582 130.496 151.78C131.563 152.136 132.591 152.63 133.54 153.223C134.193 153.638 134.727 154.192 135.102 154.864C135.419 155.497 135.577 156.189 135.557 156.901C135.577 157.83 135.3 158.759 134.786 159.53C134.232 160.321 133.461 160.934 132.572 161.29C131.603 161.705 130.417 161.922 128.993 161.922C128.084 161.922 127.194 161.843 126.304 161.665C125.612 161.547 124.92 161.329 124.288 161.033C124.149 160.954 124.05 160.815 124.07 160.657V157.217C124.07 157.158 124.09 157.079 124.149 157.039C124.209 156.999 124.268 157.019 124.327 157.059C125.098 157.514 125.909 157.83 126.779 158.028C127.53 158.225 128.321 158.324 129.112 158.324C129.863 158.324 130.397 158.225 130.753 158.047C131.069 157.909 131.286 157.573 131.286 157.217C131.286 156.94 131.128 156.683 130.812 156.426C130.496 156.169 129.843 155.873 128.874 155.497C127.866 155.141 126.937 154.667 126.067 154.073C125.454 153.638 124.94 153.065 124.564 152.393C124.248 151.76 124.09 151.068 124.11 150.376C124.11 149.526 124.347 148.716 124.782 147.984C125.276 147.193 126.008 146.561 126.858 146.165C127.787 145.691 128.954 145.473 130.357 145.473C131.168 145.473 131.998 145.532 132.809 145.651C133.402 145.73 133.975 145.888 134.509 146.106C134.588 146.126 134.667 146.205 134.707 146.284C134.727 146.363 134.746 146.442 134.746 146.521V149.744C134.746 149.823 134.707 149.902 134.647 149.941C134.47 149.981 134.371 149.981 134.292 149.941Z" fill="#31A8FF"/>
<rect x="87" y="193" width="66.4297" height="66.4297" rx="15.1839" fill="#1D1F23"/>
<rect x="87.2372" y="193.237" width="65.9552" height="65.9552" rx="14.9467" stroke="#888BA8" stroke-opacity="0.7" stroke-width="0.474498"/>
<path d="M119.886 202.332C107.84 202.332 108.592 207.556 108.592 207.556L108.605 212.967H120.101V214.592H104.04C104.04 214.592 96.3318 213.718 96.3318 225.872C96.3318 238.027 103.06 237.595 103.06 237.595H107.075V231.955C107.075 231.955 106.858 225.228 113.695 225.228H125.096C125.096 225.228 131.502 225.331 131.502 219.037V208.63C131.502 208.63 132.474 202.332 119.886 202.332ZM113.547 205.971C113.819 205.971 114.088 206.024 114.339 206.128C114.59 206.232 114.818 206.384 115.01 206.576C115.202 206.768 115.355 206.996 115.458 207.248C115.562 207.499 115.616 207.768 115.615 208.039C115.616 208.311 115.562 208.58 115.458 208.831C115.355 209.082 115.202 209.31 115.01 209.502C114.818 209.694 114.59 209.846 114.339 209.95C114.088 210.054 113.819 210.107 113.547 210.107C113.276 210.107 113.007 210.054 112.756 209.95C112.505 209.846 112.277 209.694 112.085 209.502C111.892 209.31 111.74 209.082 111.636 208.831C111.533 208.58 111.479 208.311 111.479 208.039C111.479 207.768 111.533 207.499 111.636 207.248C111.74 206.996 111.892 206.768 112.085 206.576C112.277 206.384 112.505 206.232 112.756 206.128C113.007 206.024 113.276 205.971 113.547 205.971Z" fill="url(#paint0_linear_28_358)"/>
<path d="M120.228 249.535C132.274 249.535 131.521 244.311 131.521 244.311L131.508 238.899H120.013V237.275H136.074C136.074 237.275 143.782 238.149 143.782 225.994C143.782 213.84 137.054 214.271 137.054 214.271H133.039V219.911C133.039 219.911 133.255 226.639 126.418 226.639H115.017C115.017 226.639 108.612 226.535 108.612 232.83V243.237C108.612 243.237 107.639 249.535 120.228 249.535H120.228ZM126.566 245.896C126.295 245.896 126.026 245.843 125.775 245.739C125.524 245.635 125.295 245.483 125.103 245.291C124.911 245.099 124.759 244.871 124.655 244.62C124.551 244.369 124.498 244.1 124.498 243.828C124.498 243.556 124.551 243.287 124.655 243.036C124.759 242.785 124.911 242.557 125.103 242.365C125.295 242.173 125.523 242.021 125.774 241.917C126.025 241.813 126.295 241.76 126.566 241.76C126.838 241.76 127.107 241.813 127.358 241.917C127.609 242.021 127.837 242.173 128.029 242.365C128.221 242.557 128.373 242.785 128.477 243.036C128.581 243.287 128.634 243.556 128.634 243.828C128.634 244.099 128.581 244.368 128.477 244.619C128.373 244.87 128.221 245.098 128.029 245.291C127.837 245.483 127.609 245.635 127.358 245.739C127.107 245.843 126.838 245.896 126.566 245.896V245.896Z" fill="url(#paint1_linear_28_358)"/>
<rect x="13" y="84" width="66.4297" height="66.4297" rx="15.1839" fill="#1D1F23"/>
<rect x="13.2372" y="84.2372" width="65.9552" height="65.9552" rx="14.9467" stroke="#888BA8" stroke-opacity="0.7" stroke-width="0.474498"/>
<path d="M22.3318 93.3318H69.7816V140.782H22.3318V93.3318Z" fill="#017ACB"/>
<path d="M45.1151 110.903H47.3912V114.833H41.2376V132.315L41.0745 132.359C40.852 132.419 37.9235 132.419 37.2933 132.352L36.7892 132.307V114.833H30.6355V110.903L32.5854 110.881C33.653 110.866 36.3962 110.866 38.6797 110.881C40.9633 110.896 43.8547 110.903 45.1151 110.903ZM62.4862 130.461C61.5817 131.418 60.6105 131.952 58.9942 132.389C58.2899 132.582 58.1712 132.589 56.5846 132.582C54.998 132.574 54.872 132.574 54.1009 132.374C52.1066 131.863 50.4977 130.862 49.4004 129.446C49.089 129.045 48.5775 128.215 48.5775 128.111C48.5775 128.081 48.6516 128.015 48.748 127.97C48.8444 127.926 49.0446 127.8 49.2077 127.703C49.3708 127.607 49.6673 127.429 49.8675 127.325C50.0677 127.221 50.646 126.88 51.1501 126.576C51.6543 126.272 52.114 126.028 52.1659 126.028C52.2178 126.028 52.3141 126.132 52.3883 126.258C52.8331 127.006 53.8711 127.963 54.6051 128.289C55.0573 128.482 56.0582 128.697 56.5402 128.697C56.985 128.697 57.8005 128.504 58.238 128.304C58.705 128.089 58.9423 127.874 59.224 127.444C59.4168 127.14 59.439 127.058 59.4316 126.48C59.4316 125.946 59.402 125.798 59.2537 125.553C58.8385 124.871 58.275 124.515 55.9915 123.507C53.6338 122.462 52.5736 121.839 51.7136 121.001C51.076 120.378 50.95 120.208 50.5496 119.429C50.0306 118.428 49.9639 118.102 49.9565 116.612C49.9491 115.567 49.9713 115.226 50.0825 114.87C50.2382 114.336 50.7424 113.305 50.9722 113.046C51.4467 112.49 51.6172 112.319 51.9509 112.045C52.9592 111.215 54.5309 110.666 56.036 110.614C56.2065 110.614 56.77 110.644 57.2964 110.681C58.8088 110.807 59.8394 111.177 60.8329 111.971C61.5817 112.564 62.716 113.958 62.6048 114.143C62.5307 114.254 59.5725 116.226 59.3797 116.286C59.2611 116.323 59.1795 116.278 59.0164 116.086C58.0081 114.877 57.6004 114.618 56.6217 114.558C55.9248 114.514 55.5541 114.595 55.087 114.907C54.5977 115.233 54.3604 115.73 54.3604 116.419C54.3678 117.428 54.7534 117.902 56.1769 118.606C57.0962 119.059 57.8821 119.429 57.9414 119.429C58.0304 119.429 59.9358 120.378 60.4325 120.675C62.7457 122.032 63.6873 123.425 63.9319 125.828C64.1099 127.637 63.5983 129.29 62.4862 130.461Z" fill="white"/>
<rect x="161" y="232" width="66.4297" height="66.4297" rx="15.1839" fill="#1D1F23"/>
<rect x="161.237" y="232.237" width="65.9552" height="65.9552" rx="14.9467" stroke="#888BA8" stroke-opacity="0.7" stroke-width="0.474498"/>
<path d="M217.235 248.355L195.353 288.162C194.901 288.984 193.74 288.989 193.282 288.171L170.965 248.358C170.466 247.467 171.215 246.388 172.208 246.568L194.113 250.552C194.253 250.577 194.396 250.577 194.536 250.551L215.984 246.574C216.973 246.39 217.726 247.462 217.235 248.355Z" fill="url(#paint2_linear_28_358)"/>
<path d="M204.548 241.343L188.355 244.572C188.225 244.597 188.108 244.666 188.021 244.767C187.935 244.868 187.883 244.996 187.876 245.13L186.879 262.245C186.874 262.339 186.89 262.433 186.927 262.519C186.963 262.605 187.019 262.682 187.089 262.743C187.16 262.803 187.243 262.847 187.333 262.869C187.423 262.891 187.517 262.891 187.607 262.87L192.115 261.812C192.537 261.713 192.918 262.091 192.832 262.522L191.492 269.195C191.402 269.644 191.816 270.028 192.247 269.895L195.032 269.034C195.464 268.901 195.879 269.286 195.787 269.735L193.659 280.217C193.526 280.873 194.383 281.23 194.74 280.668L194.979 280.293L208.174 253.502C208.396 253.054 208.014 252.542 207.53 252.638L202.889 253.549C202.453 253.634 202.082 253.221 202.205 252.787L205.234 242.105C205.357 241.67 204.985 241.256 204.548 241.343H204.548Z" fill="url(#paint3_linear_28_358)"/>
</g>
<defs>
<filter id="filter0_d_28_358" x="0.7" y="0.7" width="387.03" height="385.03" filterUnits="userSpaceOnUse" color-interpolation-filters="sRGB">
<feFlood flood-opacity="0" result="BackgroundImageFix"/>
<feColorMatrix in="SourceAlpha" type="matrix" values="0 0 0 0 0 0 0 0 0 0 0 0 0 0 0 0 0 0 127 0" result="hardAlpha"/>
<feOffset dy="1"/>
<feGaussianBlur stdDeviation="6.15"/>
<feComposite in2="hardAlpha" operator="out"/>
<feColorMatrix type="matrix" values="0 0 0 0 1 0 0 0 0 1 0 0 0 0 1 0 0 0 0.08 0"/>
<feBlend mode="normal" in2="BackgroundImageFix" result="effect1_dropShadow_28_358"/>
<feBlend mode="normal" in="SourceGraphic" in2="effect1_dropShadow_28_358" result="shape"/>
</filter>
<linearGradient id="paint0_linear_28_358" x1="100.892" y1="206.577" x2="124.406" y2="229.857" gradientUnits="userSpaceOnUse">
<stop stop-color="#387EB8"/>
<stop offset="1" stop-color="#366994"/>
</linearGradient>
<linearGradient id="paint1_linear_28_358" x1="115.325" y1="221.527" x2="140.577" y2="245.398" gradientUnits="userSpaceOnUse">
<stop stop-color="#FFE052"/>
<stop offset="1" stop-color="#FFC331"/>
</linearGradient>
<linearGradient id="paint2_linear_28_358" x1="170.421" y1="249.78" x2="194.549" y2="281.99" gradientUnits="userSpaceOnUse">
<stop stop-color="#41D1FF"/>
<stop offset="1" stop-color="#BD34FE"/>
</linearGradient>
<linearGradient id="paint3_linear_28_358" x1="196.144" y1="242.22" x2="201.165" y2="276.076" gradientUnits="userSpaceOnUse">
<stop stop-color="#FFEA83"/>
<stop offset="0.083" stop-color="#FFDD35"/>
<stop offset="1" stop-color="#FFA800"/>
</linearGradient>
</defs>
</svg>
